# xmcd CD database file
#
# Track frame offsets:
#	150
#	31445
#	66620
#	85320
#	117088
#	135780
#	161558
#	193375
#
# Disc length: 3237 seconds
#
# Revision: 0
# Processed by: cddbd v1.5.1PL0 Copyright (c) Steve Scherf et al.
# Submitted via: CDex 1.51
#
DISCID=6d0ca308
DTITLE=Mathias Landaeus - Darling
DYEAR=1997
DGENRE=Jazz
TTITLE0=The Bear
TTITLE1=Darling
TTITLE2=The Adventures of Captain Holmes
TTITLE3=Children's Waltz
TTITLE4=Sucker
TTITLE5=G.M.C. Theme
TTITLE6=Tree Time
TTITLE7=Surroundings
EXTD=YEAR: 1997
EXTT0=
EXTT1=
EXTT2=
EXTT3=
EXTT4=
EXTT5=
EXTT6=
EXTT7=
PLAYORDER=
